<?xml version="1.0" encoding="UTF-8" standalone="no"?>
<!-- Created with Inkscape (http://www.inkscape.org/) -->

<svg
   xmlns:dc="http://purl.org/dc/elements/1.1/"
   xmlns:cc="http://creativecommons.org/ns#"
   xmlns:rdf="http://www.w3.org/1999/02/22-rdf-syntax-ns#"
   xmlns:svg="http://www.w3.org/2000/svg"
   xmlns="http://www.w3.org/2000/svg"
   xmlns:xlink="http://www.w3.org/1999/xlink"
   xmlns:sodipodi="http://sodipodi.sourceforge.net/DTD/sodipodi-0.dtd"
   xmlns:inkscape="http://www.inkscape.org/namespaces/inkscape"
   width="210mm"
   height="297mm"
   id="svg2"
   version="1.1"
   inkscape:version="0.48.3.1 r9886"
   sodipodi:docname="sphex-olap.svg"
   inkscape:export-filename="/home/rodrigo/Documentos/Negócios/workspace/TC/doc/sphex-olap.png"
   inkscape:export-xdpi="90"
   inkscape:export-ydpi="90">
  <defs
     id="defs4">
    <linearGradient
       id="linearGradient3927">
      <stop
         style="stop-color:#ea8856;stop-opacity:1;"
         offset="0"
         id="stop3929" />
      <stop
         style="stop-color:#77323e;stop-opacity:1;"
         offset="1"
         id="stop3931" />
    </linearGradient>
    <linearGradient
       id="linearGradient4046">
      <stop
         style="stop-color:#e7e0b4;stop-opacity:0.75316453;"
         offset="0"
         id="stop4048" />
      <stop
         style="stop-color:#5e4608;stop-opacity:1;"
         offset="1"
         id="stop4050" />
    </linearGradient>
    <linearGradient
       id="linearGradient3917">
      <stop
         style="stop-color:#c5c5c5;stop-opacity:1;"
         offset="0"
         id="stop3919" />
      <stop
         style="stop-color:#e6e6e6;stop-opacity:0;"
         offset="1"
         id="stop3921" />
    </linearGradient>
    <linearGradient
       inkscape:collect="always"
       id="linearGradient3905">
      <stop
         style="stop-color:#e6e6e6;stop-opacity:1;"
         offset="0"
         id="stop3907" />
      <stop
         style="stop-color:#e6e6e6;stop-opacity:0;"
         offset="1"
         id="stop3909" />
    </linearGradient>
    <linearGradient
       id="linearGradient3895">
      <stop
         style="stop-color:#298383;stop-opacity:0.57594937;"
         offset="0"
         id="stop3897" />
      <stop
         style="stop-color:#e6e6e6;stop-opacity:0.8291139;"
         offset="1"
         id="stop3899" />
    </linearGradient>
    <linearGradient
       id="linearGradient3796">
      <stop
         style="stop-color:#1e9e90;stop-opacity:1;"
         offset="0"
         id="stop3798" />
      <stop
         style="stop-color:#2f9f5c;stop-opacity:0.60126585;"
         offset="1"
         id="stop3800" />
    </linearGradient>
    <linearGradient
       id="linearGradient3778">
      <stop
         style="stop-color:#353535;stop-opacity:0.54430377;"
         offset="0"
         id="stop3780" />
      <stop
         style="stop-color:#0b0b0b;stop-opacity:1;"
         offset="1"
         id="stop3782" />
    </linearGradient>
    <inkscape:path-effect
       effect="skeletal"
       id="path-effect3770"
       is_visible="true"
       pattern="m 45.714286,-38.571429 10,5 0,-10 z"
       copytype="single_stretched"
       prop_scale="1"
       scale_y_rel="false"
       spacing="0"
       normal_offset="0"
       tang_offset="0"
       prop_units="false"
       vertical_pattern="false"
       fuse_tolerance="0" />
    <inkscape:path-effect
       effect="skeletal"
       id="path-effect2998"
       is_visible="true"
       pattern="m 63.214286,-489.64285 10,5 0,-10 z"
       copytype="single_stretched"
       prop_scale="1"
       scale_y_rel="false"
       spacing="0"
       normal_offset="0"
       tang_offset="0"
       prop_units="false"
       vertical_pattern="false"
       fuse_tolerance="0" />
    <linearGradient
       inkscape:collect="always"
       xlink:href="#linearGradient3895"
       id="linearGradient3932"
       gradientUnits="userSpaceOnUse"
       x1="-112.39367"
       y1="309.79773"
       x2="499.51535"
       y2="309.79773" />
    <linearGradient
       inkscape:collect="always"
       xlink:href="#linearGradient3905"
       id="linearGradient3934"
       gradientUnits="userSpaceOnUse"
       x1="-10.5"
       y1="298.83044"
       x2="496.21429"
       y2="298.83044" />
    <linearGradient
       inkscape:collect="always"
       xlink:href="#linearGradient3917"
       id="linearGradient3936"
       gradientUnits="userSpaceOnUse"
       x1="-51.92857"
       y1="311.75037"
       x2="463.35715"
       y2="311.75037" />
    <linearGradient
       inkscape:collect="always"
       xlink:href="#linearGradient3796"
       id="linearGradient3946"
       x1="146.98227"
       y1="673.55499"
       x2="378.29706"
       y2="673.55499"
       gradientUnits="userSpaceOnUse"
       gradientTransform="translate(380.59473,-203.33715)" />
    <linearGradient
       inkscape:collect="always"
       xlink:href="#linearGradient3796-9"
       id="linearGradient3946-0"
       x1="146.98227"
       y1="673.55499"
       x2="378.29706"
       y2="673.55499"
       gradientUnits="userSpaceOnUse"
       gradientTransform="translate(343.45187,208.09142)" />
    <linearGradient
       id="linearGradient3796-9">
      <stop
         style="stop-color:#909090;stop-opacity:1;"
         offset="0"
         id="stop3798-7" />
      <stop
         style="stop-color:#444444;stop-opacity:1;"
         offset="1"
         id="stop3800-5" />
    </linearGradient>
    <linearGradient
       y2="673.55499"
       x2="378.29706"
       y1="673.55499"
       x1="146.98227"
       gradientTransform="translate(429.77531,188.89853)"
       gradientUnits="userSpaceOnUse"
       id="linearGradient3963-3"
       xlink:href="#linearGradient3796-9-4"
       inkscape:collect="always" />
    <linearGradient
       id="linearGradient3796-9-4">
      <stop
         style="stop-color:#909090;stop-opacity:1;"
         offset="0"
         id="stop3798-7-6" />
      <stop
         style="stop-color:#444444;stop-opacity:1;"
         offset="1"
         id="stop3800-5-9" />
    </linearGradient>
    <linearGradient
       inkscape:collect="always"
       xlink:href="#linearGradient3796-5"
       id="linearGradient3946-9"
       x1="146.98227"
       y1="673.55499"
       x2="378.29706"
       y2="673.55499"
       gradientUnits="userSpaceOnUse"
       gradientTransform="translate(386.30901,-214.76572)" />
    <linearGradient
       id="linearGradient3796-5">
      <stop
         style="stop-color:#ea9e15;stop-opacity:1;"
         offset="0"
         id="stop3798-3" />
      <stop
         style="stop-color:#d86c0e;stop-opacity:1;"
         offset="1"
         id="stop3800-3" />
    </linearGradient>
    <linearGradient
       y2="673.55499"
       x2="378.29706"
       y1="673.55499"
       x1="146.98227"
       gradientTransform="translate(471.64605,-255.47851)"
       gradientUnits="userSpaceOnUse"
       id="linearGradient4072-4"
       xlink:href="#linearGradient3796-5-7"
       inkscape:collect="always" />
    <linearGradient
       id="linearGradient3796-5-7">
      <stop
         style="stop-color:#ea9e15;stop-opacity:1;"
         offset="0"
         id="stop3798-3-6" />
      <stop
         style="stop-color:#d86c0e;stop-opacity:1;"
         offset="1"
         id="stop3800-3-1" />
    </linearGradient>
    <linearGradient
       inkscape:collect="always"
       xlink:href="#linearGradient3796-1"
       id="linearGradient3946-3"
       x1="146.98227"
       y1="673.55499"
       x2="378.29706"
       y2="673.55499"
       gradientUnits="userSpaceOnUse"
       gradientTransform="translate(386.30901,-214.76572)" />
    <linearGradient
       id="linearGradient3796-1">
      <stop
         style="stop-color:#ea9e15;stop-opacity:1;"
         offset="0"
         id="stop3798-9" />
      <stop
         style="stop-color:#d86c0e;stop-opacity:1;"
         offset="1"
         id="stop3800-1" />
    </linearGradient>
    <linearGradient
       y2="673.55499"
       x2="378.29706"
       y1="673.55499"
       x1="146.98227"
       gradientTransform="matrix(-0.93534743,-0.36379714,-0.50084893,0.67939992,1478.8905,6.054566)"
       gradientUnits="userSpaceOnUse"
       id="linearGradient4140"
       xlink:href="#linearGradient3796-1"
       inkscape:collect="always" />
    <linearGradient
       inkscape:collect="always"
       xlink:href="#linearGradient3796-4"
       id="linearGradient3946-2"
       x1="146.98227"
       y1="673.55499"
       x2="378.29706"
       y2="673.55499"
       gradientUnits="userSpaceOnUse"
       gradientTransform="translate(386.30901,-214.76572)" />
    <linearGradient
       id="linearGradient3796-4">
      <stop
         style="stop-color:#ea9e15;stop-opacity:1;"
         offset="0"
         id="stop3798-4" />
      <stop
         style="stop-color:#d86c0e;stop-opacity:1;"
         offset="1"
         id="stop3800-6" />
    </linearGradient>
    <linearGradient
       y2="673.55499"
       x2="378.29706"
       y1="673.55499"
       x1="146.98227"
       gradientTransform="matrix(0.94324738,-0.33209092,0.33209092,0.94324738,242.87005,-121.46082)"
       gradientUnits="userSpaceOnUse"
       id="linearGradient4176"
       xlink:href="#linearGradient3796-4"
       inkscape:collect="always" />
    <linearGradient
       y2="673.55499"
       x2="378.29706"
       y1="673.55499"
       x1="146.98227"
       gradientTransform="matrix(0.9680901,-0.36379714,0.51838159,0.67939992,232.43577,46.054566)"
       gradientUnits="userSpaceOnUse"
       id="linearGradient4140-9"
       xlink:href="#linearGradient3796-1-9"
       inkscape:collect="always" />
    <linearGradient
       id="linearGradient3796-1-9">
      <stop
         style="stop-color:#ea9e15;stop-opacity:1;"
         offset="0"
         id="stop3798-9-3" />
      <stop
         style="stop-color:#d86c0e;stop-opacity:1;"
         offset="1"
         id="stop3800-1-1" />
    </linearGradient>
    <linearGradient
       y2="673.55499"
       x2="378.29706"
       y1="673.55499"
       x1="146.98227"
       gradientTransform="matrix(-0.77304796,-0.36379714,-0.5407469,0.67939992,1376.8612,62.446987)"
       gradientUnits="userSpaceOnUse"
       id="linearGradient4212"
       xlink:href="#linearGradient3796-1-9"
       inkscape:collect="always" />
    <linearGradient
       y2="673.55499"
       x2="378.29706"
       y1="673.55499"
       x1="146.98227"
       gradientTransform="matrix(-0.93534743,-0.36379714,-0.50084893,0.67939992,1531.4185,6.054566)"
       gradientUnits="userSpaceOnUse"
       id="linearGradient4140-2"
       xlink:href="#linearGradient3796-1-2"
       inkscape:collect="always" />
    <linearGradient
       id="linearGradient3796-1-2">
      <stop
         style="stop-color:#ea9e15;stop-opacity:1;"
         offset="0"
         id="stop3798-9-7" />
      <stop
         style="stop-color:#d86c0e;stop-opacity:1;"
         offset="1"
         id="stop3800-1-3" />
    </linearGradient>
    <linearGradient
       y2="673.55499"
       x2="378.29706"
       y1="673.55499"
       x1="146.98227"
       gradientTransform="matrix(-0.93534743,-0.36379714,-0.50084893,0.67939992,1483.2403,-8.695872)"
       gradientUnits="userSpaceOnUse"
       id="linearGradient4246"
       xlink:href="#linearGradient3796-1-2"
       inkscape:collect="always" />
    <linearGradient
       y2="673.55499"
       x2="378.29706"
       y1="673.55499"
       x1="146.98227"
       gradientTransform="matrix(-0.77304796,-0.36379714,-0.5407469,0.67939992,1384.8612,68.446987)"
       gradientUnits="userSpaceOnUse"
       id="linearGradient4212-3"
       xlink:href="#linearGradient3796-1-9-7"
       inkscape:collect="always" />
    <linearGradient
       id="linearGradient3796-1-9-7">
      <stop
         style="stop-color:#ea9e15;stop-opacity:1;"
         offset="0"
         id="stop3798-9-3-8" />
      <stop
         style="stop-color:#d86c0e;stop-opacity:1;"
         offset="1"
         id="stop3800-1-1-5" />
    </linearGradient>
    <linearGradient
       y2="673.55499"
       x2="378.29706"
       y1="673.55499"
       x1="146.98227"
       gradientTransform="matrix(-0.77304796,-0.36379714,-0.5407469,0.67939992,1362.4878,51.304139)"
       gradientUnits="userSpaceOnUse"
       id="linearGradient4280"
       xlink:href="#linearGradient3796-1-9-7"
       inkscape:collect="always" />
    <linearGradient
       inkscape:collect="always"
       xlink:href="#linearGradient3796-1-9-7"
       id="linearGradient4307"
       x1="153.78571"
       y1="668.07648"
       x2="377.64285"
       y2="668.07648"
       gradientUnits="userSpaceOnUse"
       gradientTransform="translate(568.77448,-337.34591)" />
    <linearGradient
       inkscape:collect="always"
       xlink:href="#linearGradient3796-6"
       id="linearGradient3946-4"
       x1="146.98227"
       y1="673.55499"
       x2="378.29706"
       y2="673.55499"
       gradientUnits="userSpaceOnUse"
       gradientTransform="translate(380.59473,-203.33715)" />
    <linearGradient
       id="linearGradient3796-6">
      <stop
         style="stop-color:#ea9e15;stop-opacity:1;"
         offset="0"
         id="stop3798-5" />
      <stop
         style="stop-color:#d86c0e;stop-opacity:1;"
         offset="1"
         id="stop3800-38" />
    </linearGradient>
    <linearGradient
       y2="673.55499"
       x2="378.29706"
       y1="673.55499"
       x1="146.98227"
       gradientTransform="translate(354.5032,-226.90708)"
       gradientUnits="userSpaceOnUse"
       id="linearGradient4324"
       xlink:href="#linearGradient3796-6"
       inkscape:collect="always" />
    <linearGradient
       inkscape:collect="always"
       xlink:href="#linearGradient3796-94"
       id="linearGradient3946-06"
       x1="146.98227"
       y1="673.55499"
       x2="378.29706"
       y2="673.55499"
       gradientUnits="userSpaceOnUse"
       gradientTransform="translate(380.59473,-203.33715)" />
    <linearGradient
       id="linearGradient3796-94">
      <stop
         style="stop-color:#ea9e15;stop-opacity:1;"
         offset="0"
         id="stop3798-8" />
      <stop
         style="stop-color:#d86c0e;stop-opacity:1;"
         offset="1"
         id="stop3800-0" />
    </linearGradient>
    <linearGradient
       y2="673.55499"
       x2="378.29706"
       y1="673.55499"
       x1="146.98227"
       gradientTransform="translate(448.78891,-249.76422)"
       gradientUnits="userSpaceOnUse"
       id="linearGradient4324-4"
       xlink:href="#linearGradient3796-94"
       inkscape:collect="always" />
    <linearGradient
       y2="673.55499"
       x2="378.29706"
       y1="673.55499"
       x1="146.98227"
       gradientTransform="translate(448.78891,-249.76422)"
       gradientUnits="userSpaceOnUse"
       id="linearGradient4324-4-6"
       xlink:href="#linearGradient3796-94-9"
       inkscape:collect="always" />
    <linearGradient
       id="linearGradient3796-94-9">
      <stop
         style="stop-color:#ea9e15;stop-opacity:1;"
         offset="0"
         id="stop3798-8-3" />
      <stop
         style="stop-color:#d86c0e;stop-opacity:1;"
         offset="1"
         id="stop3800-0-7" />
    </linearGradient>
    <linearGradient
       y2="673.55499"
       x2="378.29706"
       y1="673.55499"
       x1="146.98227"
       gradientTransform="translate(583.07463,-306.90708)"
       gradientUnits="userSpaceOnUse"
       id="linearGradient4375"
       xlink:href="#linearGradient3796-94-9"
       inkscape:collect="always" />
    <linearGradient
       inkscape:collect="always"
       xlink:href="#linearGradient3796"
       id="linearGradient3854"
       x1="-469.21078"
       y1="676.58545"
       x2="-233.85539"
       y2="676.58545"
       gradientUnits="userSpaceOnUse"
       gradientTransform="translate(187.88838,-723.26923)" />
    <linearGradient
       inkscape:collect="always"
       xlink:href="#linearGradient3796"
       id="linearGradient3861"
       gradientUnits="userSpaceOnUse"
       gradientTransform="translate(187.88838,-723.26923)"
       x1="-469.21078"
       y1="676.58545"
       x2="-233.85539"
       y2="676.58545" />
    <linearGradient
       id="linearGradient3796-62">
      <stop
         style="stop-color:#1e9e90;stop-opacity:1;"
         offset="0"
         id="stop3798-2" />
      <stop
         style="stop-color:#2f9f5c;stop-opacity:0.60126585;"
         offset="1"
         id="stop3800-7" />
    </linearGradient>
    <linearGradient
       inkscape:collect="always"
       xlink:href="#linearGradient3796-62"
       id="linearGradient3868-9"
       gradientUnits="userSpaceOnUse"
       gradientTransform="translate(1004.0917,-228.29448)"
       x1="-469.21078"
       y1="676.58545"
       x2="-233.85539"
       y2="676.58545" />
    <linearGradient
       id="linearGradient3887">
      <stop
         style="stop-color:#1e9e90;stop-opacity:1;"
         offset="0"
         id="stop3889" />
      <stop
         style="stop-color:#2f9f5c;stop-opacity:0.60126585;"
         offset="1"
         id="stop3891" />
    </linearGradient>
    <linearGradient
       id="linearGradient3796-8">
      <stop
         style="stop-color:#1e9e90;stop-opacity:1;"
         offset="0"
         id="stop3798-92" />
      <stop
         style="stop-color:#2f9f5c;stop-opacity:0.60126585;"
         offset="1"
         id="stop3800-8" />
    </linearGradient>
    <linearGradient
       inkscape:collect="always"
       xlink:href="#linearGradient3796-8"
       id="linearGradient3868-2"
       gradientUnits="userSpaceOnUse"
       gradientTransform="translate(1004.0917,-228.29448)"
       x1="-469.21078"
       y1="676.58545"
       x2="-233.85539"
       y2="676.58545" />
    <linearGradient
       id="linearGradient3887-5">
      <stop
         style="stop-color:#1e9e90;stop-opacity:1;"
         offset="0"
         id="stop3889-2" />
      <stop
         style="stop-color:#2f9f5c;stop-opacity:0.60126585;"
         offset="1"
         id="stop3891-4" />
    </linearGradient>
    <linearGradient
       inkscape:collect="always"
       xlink:href="#linearGradient3917"
       id="linearGradient3952"
       gradientUnits="userSpaceOnUse"
       x1="-51.92857"
       y1="311.75037"
       x2="463.35715"
       y2="311.75037"
       gradientTransform="matrix(0.99915196,0.04117491,-0.04117491,0.99915196,307.15081,-184.92825)" />
    <linearGradient
       inkscape:collect="always"
       xlink:href="#linearGradient3905"
       id="linearGradient3955"
       gradientUnits="userSpaceOnUse"
       x1="-10.5"
       y1="298.83044"
       x2="496.21429"
       y2="298.83044"
       gradientTransform="matrix(0.99915196,0.04117491,-0.04117491,0.99915196,307.15081,-184.92825)" />
    <linearGradient
       inkscape:collect="always"
       xlink:href="#linearGradient3895"
       id="linearGradient3958"
       gradientUnits="userSpaceOnUse"
       x1="-112.39367"
       y1="309.79773"
       x2="499.51535"
       y2="309.79773"
       gradientTransform="matrix(0.99915196,0.04117491,-0.04117491,0.99915196,307.15081,-184.92825)" />
    <linearGradient
       inkscape:collect="always"
       xlink:href="#linearGradient3895"
       id="linearGradient3978"
       x1="184.04462"
       y1="128.73477"
       x2="795.0625"
       y2="128.73477"
       gradientUnits="userSpaceOnUse" />
    <linearGradient
       inkscape:collect="always"
       xlink:href="#linearGradient3895"
       id="linearGradient3140"
       gradientUnits="userSpaceOnUse"
       x1="184.04462"
       y1="128.73477"
       x2="795.0625"
       y2="128.73477" />
    <linearGradient
       inkscape:collect="always"
       xlink:href="#linearGradient3895"
       id="linearGradient3449"
       gradientUnits="userSpaceOnUse"
       x1="184.04462"
       y1="128.73477"
       x2="795.0625"
       y2="128.73477" />
    <linearGradient
       inkscape:collect="always"
       xlink:href="#linearGradient3895"
       id="linearGradient3488"
       gradientUnits="userSpaceOnUse"
       x1="184.04462"
       y1="128.73477"
       x2="795.0625"
       y2="128.73477" />
    <linearGradient
       inkscape:collect="always"
       xlink:href="#linearGradient3895-9"
       id="linearGradient4318-0"
       gradientUnits="userSpaceOnUse"
       gradientTransform="matrix(0.97486605,0.22279175,-0.22279175,0.97486605,166.03902,121.35905)"
       x1="184.04462"
       y1="128.73477"
       x2="795.0625"
       y2="128.73477" />
    <linearGradient
       id="linearGradient3895-9">
      <stop
         style="stop-color:#298383;stop-opacity:0.57594937;"
         offset="0"
         id="stop3897-7" />
      <stop
         style="stop-color:#e6e6e6;stop-opacity:0.8291139;"
         offset="1"
         id="stop3899-7" />
    </linearGradient>
    <radialGradient
       inkscape:collect="always"
       xlink:href="#linearGradient3796"
       id="radialGradient4381"
       gradientUnits="userSpaceOnUse"
       gradientTransform="matrix(0.97486605,0.22279175,-0.10182163,0.44553912,459.91789,245.48405)"
       cx="419.10818"
       cy="392.19443"
       fx="419.10818"
       fy="392.19443"
       r="387.82248" />
    <radialGradient
       inkscape:collect="always"
       xlink:href="#linearGradient3796"
       id="radialGradient4383"
       gradientUnits="userSpaceOnUse"
       gradientTransform="matrix(0.97486605,0.22279175,-0.10182163,0.44553912,442.94808,241.771)"
       cx="419.10818"
       cy="392.19443"
       fx="419.10818"
       fy="392.19443"
       r="387.82248" />
    <linearGradient
       inkscape:collect="always"
       xlink:href="#linearGradient3796"
       id="linearGradient4385"
       gradientUnits="userSpaceOnUse"
       gradientTransform="matrix(0.97486605,0.22279175,-0.22279175,0.97486605,63.735535,79.327529)"
       x1="774.54633"
       y1="218.91568"
       x2="1214.5209"
       y2="218.91568" />
    <linearGradient
       inkscape:collect="always"
       xlink:href="#linearGradient3905"
       id="linearGradient4387"
       gradientUnits="userSpaceOnUse"
       gradientTransform="matrix(0.97486605,0.22279175,-0.22279175,0.97486605,166.03902,121.35905)"
       x1="979.48499"
       y1="133.98848"
       x2="1083.5748"
       y2="133.98848" />
    <linearGradient
       inkscape:collect="always"
       xlink:href="#linearGradient3895"
       id="linearGradient4389"
       gradientUnits="userSpaceOnUse"
       gradientTransform="matrix(0.97486605,0.22279175,-0.22279175,0.97486605,166.03902,121.35905)"
       x1="184.04462"
       y1="128.73477"
       x2="795.0625"
       y2="128.73477" />
    <linearGradient
       inkscape:collect="always"
       xlink:href="#linearGradient3796"
       id="linearGradient4391"
       gradientUnits="userSpaceOnUse"
       gradientTransform="matrix(0.97486605,0.22279175,-0.22279175,0.97486605,1195.7561,122.50586)"
       x1="-469.21078"
       y1="676.58545"
       x2="-233.85539"
       y2="676.58545" />
    <linearGradient
       inkscape:collect="always"
       xlink:href="#linearGradient3796"
       id="linearGradient4393"
       gradientUnits="userSpaceOnUse"
       gradientTransform="matrix(0.87608717,0.48215275,-0.48215275,0.87608717,1286.4186,268.837)"
       x1="-469.21078"
       y1="676.58545"
       x2="-233.85539"
       y2="676.58545" />
    <linearGradient
       inkscape:collect="always"
       xlink:href="#linearGradient3796-62"
       id="linearGradient4395"
       gradientUnits="userSpaceOnUse"
       gradientTransform="matrix(0.97486605,0.22279175,-0.22279175,0.97486605,1282.7014,99.302248)"
       x1="-469.21078"
       y1="676.58545"
       x2="-233.85539"
       y2="676.58545" />
    <linearGradient
       inkscape:collect="always"
       xlink:href="#linearGradient3796-62"
       id="linearGradient4397"
       gradientUnits="userSpaceOnUse"
       gradientTransform="matrix(0.93527572,0.35391996,-0.35391996,0.93527572,1335.2463,166.86279)"
       x1="-469.21078"
       y1="676.58545"
       x2="-233.85539"
       y2="676.58545" />
    <linearGradient
       inkscape:collect="always"
       xlink:href="#linearGradient3796-8"
       id="linearGradient4399"
       gradientUnits="userSpaceOnUse"
       gradientTransform="matrix(0.97486605,0.22279175,-0.22279175,0.97486605,1389.2796,86.356106)"
       x1="-469.21078"
       y1="676.58545"
       x2="-233.85539"
       y2="676.58545" />
    <linearGradient
       inkscape:collect="always"
       xlink:href="#linearGradient3796-8"
       id="linearGradient4401"
       gradientUnits="userSpaceOnUse"
       gradientTransform="matrix(0.80554311,-0.59253716,0.59253716,0.80554311,963.63691,-152.70226)"
       x1="-469.21078"
       y1="676.58545"
       x2="-233.85539"
       y2="676.58545" />
    <linearGradient
       inkscape:collect="always"
       xlink:href="#linearGradient3895-9"
       id="linearGradient4403"
       gradientUnits="userSpaceOnUse"
       gradientTransform="matrix(0.94729483,0.32036305,-0.32036305,0.94729483,200.99077,52.252419)"
       x1="184.04462"
       y1="128.73477"
       x2="795.0625"
       y2="128.73477" />
    <linearGradient
       inkscape:collect="always"
       xlink:href="#linearGradient3895-9"
       id="linearGradient3120"
       gradientUnits="userSpaceOnUse"
       gradientTransform="matrix(1.0197476,0.28529583,-0.34486567,0.84360309,-1882.8374,937.62111)"
       x1="184.04462"
       y1="128.73477"
       x2="795.0625"
       y2="128.73477" />
    <linearGradient
       inkscape:collect="always"
       xlink:href="#linearGradient3796-8"
       id="linearGradient3123"
       gradientUnits="userSpaceOnUse"
       gradientTransform="matrix(0.86715419,-0.52767752,0.63785671,0.71736764,-1061.8611,755.10096)"
       x1="-469.21078"
       y1="676.58545"
       x2="-233.85539"
       y2="676.58545" />
    <linearGradient
       inkscape:collect="always"
       xlink:href="#linearGradient3796-8"
       id="linearGradient3126"
       gradientUnits="userSpaceOnUse"
       gradientTransform="matrix(1.0494276,0.19840477,-0.23983173,0.86815634,-603.66358,967.99178)"
       x1="-469.21078"
       y1="676.58545"
       x2="-233.85539"
       y2="676.58545" />
    <linearGradient
       inkscape:collect="always"
       xlink:href="#linearGradient3796-62"
       id="linearGradient3129"
       gradientUnits="userSpaceOnUse"
       gradientTransform="matrix(1.0068093,0.31517957,-0.38098914,0.83289961,-661.82956,1039.6861)"
       x1="-469.21078"
       y1="676.58545"
       x2="-233.85539"
       y2="676.58545" />
    <linearGradient
       inkscape:collect="always"
       xlink:href="#linearGradient3796-62"
       id="linearGradient3132"
       gradientUnits="userSpaceOnUse"
       gradientTransform="matrix(1.0494276,0.19840477,-0.23983173,0.86815634,-718.39329,979.52083)"
       x1="-469.21078"
       y1="676.58545"
       x2="-233.85539"
       y2="676.58545" />
    <linearGradient
       inkscape:collect="always"
       xlink:href="#linearGradient3796"
       id="linearGradient3135"
       gradientUnits="userSpaceOnUse"
       gradientTransform="matrix(0.94309373,0.42937588,-0.51902967,0.78018989,-714.39179,1130.4982)"
       x1="-469.21078"
       y1="676.58545"
       x2="-233.85539"
       y2="676.58545" />
    <linearGradient
       inkscape:collect="always"
       xlink:href="#linearGradient3796"
       id="linearGradient3138"
       gradientUnits="userSpaceOnUse"
       gradientTransform="matrix(1.0494276,0.19840477,-0.23983173,0.86815634,-811.98851,1000.1845)"
       x1="-469.21078"
       y1="676.58545"
       x2="-233.85539"
       y2="676.58545" />
    <linearGradient
       inkscape:collect="always"
       xlink:href="#linearGradient3895"
       id="linearGradient3141"
       gradientUnits="userSpaceOnUse"
       gradientTransform="matrix(1.0494276,0.19840477,-0.23983173,0.86815634,-1920.4624,999.16327)"
       x1="184.04462"
       y1="128.73477"
       x2="795.0625"
       y2="128.73477" />
    <linearGradient
       inkscape:collect="always"
       xlink:href="#linearGradient3905"
       id="linearGradient3144"
       gradientUnits="userSpaceOnUse"
       gradientTransform="matrix(1.0494276,0.19840477,-0.23983173,0.86815634,-1920.4624,999.16327)"
       x1="979.48499"
       y1="133.98848"
       x2="1083.5748"
       y2="133.98848" />
    <linearGradient
       inkscape:collect="always"
       xlink:href="#linearGradient3796"
       id="linearGradient3147"
       gradientUnits="userSpaceOnUse"
       gradientTransform="matrix(1.0494276,0.19840477,-0.23983173,0.86815634,-2030.5904,961.73256)"
       x1="774.54633"
       y1="218.91568"
       x2="1214.5209"
       y2="218.91568" />
    <radialGradient
       inkscape:collect="always"
       xlink:href="#linearGradient3796"
       id="radialGradient3150"
       gradientUnits="userSpaceOnUse"
       gradientTransform="matrix(1.0494276,0.19840477,-0.10960935,0.39677001,-1622.3742,1106.3948)"
       cx="419.10818"
       cy="392.19443"
       fx="419.10818"
       fy="392.19443"
       r="387.82248" />
    <radialGradient
       inkscape:collect="always"
       xlink:href="#linearGradient3796"
       id="radialGradient3153"
       gradientUnits="userSpaceOnUse"
       gradientTransform="matrix(1.0494276,0.19840477,-0.10960935,0.39677001,-1604.1065,1109.7014)"
       cx="419.10818"
       cy="392.19443"
       fx="419.10818"
       fy="392.19443"
       r="387.82248" />
    <linearGradient
       inkscape:collect="always"
       xlink:href="#linearGradient3796-8-3"
       id="linearGradient3126-4"
       gradientUnits="userSpaceOnUse"
       gradientTransform="matrix(1.0494276,0.19840477,-0.23983173,0.86815634,-603.66358,967.99178)"
       x1="-469.21078"
       y1="676.58545"
       x2="-233.85539"
       y2="676.58545" />
    <linearGradient
       id="linearGradient3796-8-3">
      <stop
         style="stop-color:#1e9e90;stop-opacity:1;"
         offset="0"
         id="stop3798-92-7" />
      <stop
         style="stop-color:#2f9f5c;stop-opacity:0.60126585;"
         offset="1"
         id="stop3800-8-9" />
    </linearGradient>
    <linearGradient
       inkscape:collect="always"
       xlink:href="#linearGradient3796-8-3"
       id="linearGradient3123-2"
       gradientUnits="userSpaceOnUse"
       gradientTransform="matrix(-0.87204931,0.33342487,0.1624559,0.86781904,-1405.8724,996.60167)"
       x1="-469.21078"
       y1="676.58545"
       x2="-233.85539"
       y2="676.58545" />
    <linearGradient
       id="linearGradient3170">
      <stop
         style="stop-color:#1e9e90;stop-opacity:1;"
         offset="0"
         id="stop3172" />
      <stop
         style="stop-color:#2f9f5c;stop-opacity:0.60126585;"
         offset="1"
         id="stop3174" />
    </linearGradient>
    <linearGradient
       y2="676.58545"
       x2="-233.85539"
       y1="676.58545"
       x1="-469.21078"
       gradientTransform="matrix(-0.50319762,0.84362814,0.74405762,0.36415089,-1513.4356,1351.1538)"
       gradientUnits="userSpaceOnUse"
       id="linearGradient3178"
       xlink:href="#linearGradient3796-8-3"
       inkscape:collect="always" />
    <linearGradient
       inkscape:collect="always"
       xlink:href="#linearGradient3796-62-1"
       id="linearGradient3129-0"
       gradientUnits="userSpaceOnUse"
       gradientTransform="matrix(1.0068093,0.31517957,-0.38098914,0.83289961,-661.82956,1039.6861)"
       x1="-469.21078"
       y1="676.58545"
       x2="-233.85539"
       y2="676.58545" />
    <linearGradient
       id="linearGradient3796-62-1">
      <stop
         style="stop-color:#1e9e90;stop-opacity:1;"
         offset="0"
         id="stop3798-2-1" />
      <stop
         style="stop-color:#2f9f5c;stop-opacity:0.60126585;"
         offset="1"
         id="stop3800-7-1" />
    </linearGradient>
    <linearGradient
       y2="676.58545"
       x2="-233.85539"
       y1="676.58545"
       x1="-469.21078"
       gradientTransform="matrix(1.0415831,-0.16765372,0.03110184,0.91537268,-793.87705,738.08065)"
       gradientUnits="userSpaceOnUse"
       id="linearGradient3990"
       xlink:href="#linearGradient3796-62-1"
       inkscape:collect="always" />
    <linearGradient
       inkscape:collect="always"
       xlink:href="#linearGradient3796-51"
       id="linearGradient3135-9"
       gradientUnits="userSpaceOnUse"
       gradientTransform="matrix(0.94309373,0.42937588,-0.51902967,0.78018989,-714.39179,1130.4982)"
       x1="-469.21078"
       y1="676.58545"
       x2="-233.85539"
       y2="676.58545" />
    <linearGradient
       id="linearGradient3796-51">
      <stop
         style="stop-color:#1e9e90;stop-opacity:1;"
         offset="0"
         id="stop3798-1" />
      <stop
         style="stop-color:#2f9f5c;stop-opacity:0.60126585;"
         offset="1"
         id="stop3800-08" />
    </linearGradient>
    <linearGradient
       y2="676.58545"
       x2="-233.85539"
       y1="676.58545"
       x1="-469.21078"
       gradientTransform="matrix(0.97787989,0.34284172,-0.44677933,0.82369673,-677.12336,1062.8115)"
       gradientUnits="userSpaceOnUse"
       id="linearGradient4024"
       xlink:href="#linearGradient3796-51"
       inkscape:collect="always" />
    <linearGradient
       inkscape:collect="always"
       xlink:href="#linearGradient3927"
       id="linearGradient3933"
       x1="459.29938"
       y1="1022.2811"
       x2="456.18683"
       y2="1395.7721"
       gradientUnits="userSpaceOnUse"
       gradientTransform="translate(1817.5999,339.53721)" />
  </defs>
  <sodipodi:namedview
     id="base"
     pagecolor="#ffffff"
     bordercolor="#666666"
     borderopacity="1.0"
     inkscape:pageopacity="0.0"
     inkscape:pageshadow="2"
     inkscape:zoom="0.175"
     inkscape:cx="1220.3407"
     inkscape:cy="5.1001965"
     inkscape:document-units="px"
     inkscape:current-layer="layer1"
     showgrid="false"
     inkscape:window-width="1317"
     inkscape:window-height="744"
     inkscape:window-x="49"
     inkscape:window-y="24"
     inkscape:window-maximized="1"
     showguides="true"
     inkscape:guide-bbox="true" />
  <metadata
     id="metadata7">
    <rdf:RDF>
      <cc:Work
         rdf:about="">
        <dc:format>image/svg+xml</dc:format>
        <dc:type
           rdf:resource="http://purl.org/dc/dcmitype/StillImage" />
        <dc:title></dc:title>
      </cc:Work>
    </rdf:RDF>
  </metadata>
  <g
     inkscape:label="Camada 1"
     inkscape:groupmode="layer"
     id="layer1">
    <path
       style="fill:url(#linearGradient3123-2);fill-opacity:1;stroke:none"
       d="m -940.27406,1345.0589 30.61679,83.495 18.18952,56.9201 19.33845,22.6546 c 0,0 11.81251,48.2264 13.78337,73.6289 1.34372,17.3195 -1.38475,53.1288 -1.38475,53.1288 l -15.98383,-65.261 -29.18739,-75.266 -18.87166,-60.4081 -31.60752,-62.6025 c 0.78808,-3.6534 11.90161,-15.5855 15.10702,-26.2898 z"
       id="path3864-2-4"
       inkscape:connector-curvature="0"
       sodipodi:nodetypes="ccccscccccc" />
    <text
       xml:space="preserve"
       style="font-size:531.03082275px;font-style:normal;font-weight:normal;line-height:125%;letter-spacing:0px;word-spacing:0px;fill:url(#linearGradient3933);fill-opacity:1;stroke:none;font-family:Sans"
       x="1137.103"
       y="1723.2352"
       id="text4394"
       sodipodi:linespacing="125%"
       transform="scale(0.84884311,1.178074)"
       inkscape:export-filename="/home/rodrigo/Documentos/Negócios/workspace/TC/doc/logo.png"
       inkscape:export-xdpi="90"
       inkscape:export-ydpi="90"><tspan
         sodipodi:role="line"
         id="tspan4396"
         x="1137.103"
         y="1723.2352"
         style="font-style:italic;font-variant:normal;font-weight:bold;font-stretch:normal;fill:url(#linearGradient3933);fill-opacity:1;font-family:D3 Euronism;-inkscape-font-specification:D3 Euronism Bold Italic">Sphex</tspan></text>
    <path
       style="fill:url(#radialGradient3153);fill-opacity:1;stroke:none"
       d="m -1446.1243,1321.494 c -9.9566,-1.9198 -20.3807,-3.0627 -31.0864,-3.7647 -16.4766,-2.2046 -40.5062,0.6621 -48.4193,3.8918 -0.8587,-0.3917 -1.9784,-0.6827 -3.3029,-0.9099 0.3162,0.7219 0.654,1.5551 0.9792,2.3261 -9.3764,0.8086 -19.843,2.3156 -28.8832,3.8742 l -0.2677,5.7158 c 12.6641,23.9177 31.9781,82.5028 64.0236,105.8807 l 33.3285,2.019 c -0.2821,-0.3736 -0.571,-0.7756 -0.8527,-1.1603 l 26.7106,1.3673 58.673,4.5841 44.0013,-8.0099 14.5305,-5.1318 -6.6152,-24.1452 -21.3348,6.5287 -10.3234,-16.9673 -28.0793,-42.5053 c -8.4221,-10.4935 -21.3488,-18.005 -34.8352,-25.1699 -8.8009,-3.8068 -18.29,-6.5035 -28.2466,-8.4234 z m -114.2954,12.3907 c -12.746,1.0326 -26.2977,6.218 -37.2014,10.7513 l -1.0492,4.7974 c 16.2933,23.958 44.7081,64.7432 72.5784,87.0299 l 0.4591,0.087 27.1575,1.6231 c -25.9079,-20.4183 -53.3303,-84.5185 -61.9444,-104.2885 z m -40.9135,17.4432 c -7.7953,1.5477 -13.5306,5.3496 -22.3296,11.8787 l -2.553,6.3686 -1.9602,1.5992 c 12.2392,15.8273 33.4474,38.4921 59.9299,58.1186 l 35.7545,6.1031 c -23.5452,-19.5746 -53.6971,-61.2717 -68.8416,-84.0682 z m -29.291,21.8386 -6.2879,5.1486 c -5.3195,8.1763 -10.7448,16.0387 -14.4854,29.5764 0.4478,15.042 6.7457,24.3841 27.2698,19.8287 12.4064,-1.4039 19.8648,-13.7627 46.1622,-0.093 l 3.4584,0.5968 c -22.6748,-17.0196 -46.5924,-42.6912 -56.1171,-55.057 z"
       id="path4029"
       inkscape:connector-curvature="0" />
    <path
       style="fill:url(#radialGradient3150);fill-opacity:1;stroke:none"
       d="m -1286.8616,1421.7767 -7.9365,-29.1052 -6.8284,8.7289 -18.2737,5.566 6.6151,24.1452 26.4235,-9.3349 z"
       id="path4019"
       inkscape:connector-curvature="0" />
    <path
       style="fill:url(#linearGradient3147);fill-opacity:1;stroke:none"
       d="m -876.39594,1247.5664 c -19.796,-3.7541 -33.80773,3.3882 -44.96635,8.2556 -11.21513,11.9991 -22.37138,24.0545 -18.24952,47.4488 l -23.22988,-31.4543 c -7.31858,-10.7209 -19.26432,-16.218 -31.0571,-21.8579 -34.72621,-9.5355 -70.41961,-16.7984 -113.73121,-6.5149 l -34.2675,39.8529 c -53.0855,9.026 -88.3605,25.5343 -127.1505,40.5624 -10.5781,14.5049 -18.6448,30.0256 -13.3237,50.9779 l -6.5818,12.4581 -2.9429,3.7827 7.9365,29.1053 2.3303,-0.8155 10.2099,13.0065 19.617,8.9328 c 0,0 24.6617,2.0566 31.001,1.9502 6.3393,-0.1065 25.3553,-0.4182 33.5364,-1.4815 8.1812,-1.0633 22.6893,-2.2598 31.8983,-7.0438 9.209,-4.7839 11.8583,-2.9535 11.8583,-2.9535 0,0 23.402,-4.7147 32.2684,-8.2584 8.8664,-3.5438 13.3556,-2.6991 20.8516,-1.2819 7.4959,1.4172 34.7076,0.025 34.7076,0.025 l 40.0829,-8.0657 c 26.8421,-5.0179 53.94775,-9.8477 47.45181,-38.9874 22.10797,-7.263 18.88358,-5.9175 27.80924,-29.3412 l 15.04774,-3.0071 8.69562,12.7242 c 24.70585,9.9407 25.33893,31.0716 66.55685,24.6545 2.96184,-1.3512 12.7333,-0.4079 20.40669,3.2015 11.22568,5.5858 12.79789,1.584 15.0712,-1.7181 2.31078,-7.8273 6.00022,-10.696 11.37822,-11.2088 -0.084,-12.0805 10.13865,-7.9947 2.34566,-37.0956 1.2554,-7.4839 -2.68281,-15.9375 -10.41756,-25.121 -4.39647,-20.7766 -17.13407,-29.5489 -28.11281,-40.8844 l -25.41826,-16.5384 c -4.08063,-1.5259 -7.94628,-2.6135 -11.61214,-3.3087 z"
       id="path3774"
       inkscape:connector-curvature="0"
       sodipodi:nodetypes="sccccccccccccccssscssccccccccccccccs" />
    <path
       style="fill:url(#linearGradient3144);fill-opacity:1;stroke:none"
       d="m -917.83917,1284.9968 c 1.40922,-5.3453 4.64879,-9.8084 11.29684,-12.6286 5.55637,-3.4452 13.39544,-3.8833 22.4885,-2.6691 l 24.32175,12.9032 c 22.88906,15.6352 22.67,28.9355 31.45572,45.6263 2.3363,3.1886 7.68093,23.74 6.90662,23.4523 -1.58545,6.3876 -5.50643,11.1859 -10.84246,15.0215 -3.42935,2.3369 -6.6489,4.7938 -13.19015,5.3498 -9.82238,-0.7757 -19.95059,-3.1615 -30.37892,-7.1276 -6.95936,-3.5557 -12.06502,-8.9757 -16.46202,-15.1084 -7.36046,-11.4323 -11.77211,-22.0146 -16.09936,-32.5725 -4.01711,-8.8615 -7.39264,-19.1449 -9.49652,-32.2469 z"
       id="path3776"
       inkscape:connector-curvature="0"
       sodipodi:nodetypes="cccccccccccc" />
    <path
       style="fill:url(#linearGradient3141);fill-opacity:1;stroke:none"
       d="m -1108.8357,1239.201 -37.7715,-8.5089 -94.9113,-33.5014 -78.5033,-25.1433 -111.2256,-45.5676 c -70.8411,-26.5736 -146.9908,-42.1306 -233.1114,-45.055 -41.434,-2.9887 -60.6649,8.7196 -76.3857,16.3565 -15.9569,18.0045 -5.2929,32.4377 13.0876,45.8357 42.6701,0.4078 23.1214,25.9248 48.7558,43.6152 0,0 52.1795,22.9427 66.405,55.0498 5.8456,13.1935 28.4319,23.187 28.4319,23.187 l 44.1651,16.4756 c 63.2031,7.1198 90.6953,-0.5172 129.6096,-3.4343 40.7534,7.6892 114.7494,11.2579 159.0857,9.7323 l 63.5143,-8.068 44.4413,-4.906 z"
       id="path3893"
       inkscape:connector-curvature="0"
       sodipodi:nodetypes="cccccccccsccccccc" />
    <path
       style="fill:url(#linearGradient3138);fill-opacity:1;stroke:none"
       d="m -1330.28,1341.978 72.2716,77.523 60.7137,22.5547 29.831,-3.2169 -52.1416,-45.3058 -32.3243,-28.2636 -36.595,-29.0425 -19.6327,-25.8641 c -4.3467,-0.4238 -8.6023,-1.1683 -12.9416,-1.6189 z"
       id="path3866"
       inkscape:connector-curvature="0"
       sodipodi:nodetypes="cccccccccc" />
    <path
       style="fill:url(#linearGradient3135);fill-opacity:1;stroke:none"
       d="m -1310.5038,1310.1237 c -8.4044,-2.3018 -18.1239,-2.6115 -32.5856,4.1919 l -34.1166,21.4423 -103.3554,125.4623 -43.2546,50.1274 -32.008,18.2728 c 0,0 -32.2479,42.9705 -44.0364,66.1943 -8.0374,15.8339 -17.9226,49.3357 -17.9226,49.3357 l 43.6374,-58.1487 63.4742,-65.5718 45.3763,-53.2592 35.6104,-42.331 94.5432,-78.6813 24.6377,-37.0347 z"
       id="path3864"
       inkscape:connector-curvature="0" />
    <path
       style="fill:url(#linearGradient3132);fill-opacity:1;stroke:none"
       d="m -1236.6848,1321.3143 72.2717,77.523 60.7135,22.5547 31.599,1.0761 -53.9095,-49.5989 -32.3243,-28.2636 -36.595,-29.0424 -19.6327,-25.8641 c -4.3467,-0.4239 -8.6023,-1.1683 -12.9416,-1.6189 z"
       id="path3866-9"
       inkscape:connector-curvature="0"
       sodipodi:nodetypes="cccccccccc" />
    <path
       style="fill:url(#linearGradient3129);fill-opacity:1;stroke:none"
       d="m -1221.4066,1286.9948 c -8.7125,-1.2994 -18.3879,-0.4732 -31.5468,7.9477 l -30.1247,25.2046 -80.9587,136.2568 -34.2866,54.6686 -28.577,21.821 c 0,0 -24.6086,46.3003 -32.3246,70.6663 -5.2607,16.6127 -9.3421,50.9325 -9.3421,50.9325 l 33.2996,-62.6546 51.6745,-72.3154 35.8539,-58.0165 28.0464,-46.059 80.201,-88.9153 18.0851,-39.5367 z"
       id="path3864-0"
       inkscape:connector-curvature="0" />
    <path
       style="fill:url(#linearGradient3126);fill-opacity:1;stroke:none"
       d="m -1121.955,1309.7853 72.2717,77.5229 59.45083,21.0395 c 15.63434,-5.4467 26.56248,-14.1092 22.12879,-33.269 l -43.17662,-13.7385 -32.3242,-28.2636 -36.595,-29.0424 -19.6328,-25.8642 c -4.3467,-0.4238 -8.6023,-1.1682 -12.9416,-1.6188 z"
       id="path3866-98"
       inkscape:connector-curvature="0"
       sodipodi:nodetypes="cccccccccc" />
    <path
       style="fill:url(#linearGradient3123);fill-opacity:1;stroke:none"
       d="m -1115.1988,1278.0818 c -6.0552,5.3427 -10.4775,12.5096 -9.0886,26.2244 l 9.1921,34.6195 94.2191,130.2925 36.82143,53.5286 6.60078,31.7053 c 0,0 33.5933,42.2592 54.11808,60.8641 13.99386,12.6849 46.59302,34.178 46.59302,34.178 l -45.45981,-57.1851 -45.27078,-75.1957 -39.36562,-56.4369 -31.4795,-44.515 -46.6019,-104.0272 -30.2783,-34.0525 z"
       id="path3864-2"
       inkscape:connector-curvature="0" />
    <path
       style="fill:url(#linearGradient3120);fill-opacity:1;stroke:none"
       d="m -1104.7644,1244.4152 -36.5359,-11.6293 -90.3226,-41.2799 -75.0222,-31.5904 -105.0762,-54.6507 c -67.2241,-32.3714 -141.0782,-54.2275 -226.3981,-64.3513 -40.8553,-6.4442 -61.4204,3.5929 -77.9952,9.8736 -18.0788,16.5752 -9.2363,31.8276 7.4098,46.6965 42.4008,3.9802 19.8292,27.7284 43.1664,47.4753 0,0 49.103,27.1959 59.3254,60.3296 4.2006,13.6154 25.4475,25.4495 25.4475,25.4495 l 41.9214,20.0907 c 62.0067,12.3778 90.2924,7.083 129.3637,7.4408 39.6028,11.0636 112.7816,20.8127 157.0767,23.009 l 64.1754,-2.706 44.8134,-1.1579 z"
       id="path3893-2"
       inkscape:connector-curvature="0"
       sodipodi:nodetypes="cccccccccsccccccc" />
    <text
       xml:space="preserve"
       style="font-size:192.17247009px;font-style:normal;font-weight:normal;line-height:125%;letter-spacing:0px;word-spacing:0px;fill:#999999;fill-opacity:1;stroke:none;font-family:Sans"
       x="1981.8662"
       y="2560.7957"
       id="text4405"
       sodipodi:linespacing="125%"
       transform="scale(1.1608055,0.86147076)"
       inkscape:export-xdpi="90"
       inkscape:export-ydpi="90"
       inkscape:export-filename="/home/rodrigo/Documentos/Negócios/workspace/TC/doc/logo.png"><tspan
         sodipodi:role="line"
         id="tspan4407"
         x="1981.8662"
         y="2560.7957"
         style="font-style:normal;font-variant:normal;font-weight:600;font-stretch:normal;fill:#999999;fill-opacity:1;font-family:URW Gothic L;-inkscape-font-specification:URW Gothic L Semi-Bold">olap</tspan></text>
    <path
       style="fill:url(#linearGradient3990);fill-opacity:1;stroke:none"
       d="m -1245.3355,1437.4012 3.0242,51.3692 -15.8231,32.2866 c 0,0 -1.3397,52.4167 2.6388,77.6637 2.7125,17.2133 14.3884,49.743 14.3884,49.743 l 1.8117,-70.9308 13.9376,-87.7811 3.3115,-49.3502 c -2.943,-0.3994 -15.5532,-2.3752 -23.2891,-3.0004 z"
       id="path3864-0-8"
       inkscape:connector-curvature="0"
       sodipodi:nodetypes="cccsccccc" />
    <path
       style="fill:url(#linearGradient4024);fill-opacity:1;stroke:none"
       d="m -1403.8881,1443.4039 -45.1384,71.4912 -30.2354,21.0766 c 0,0 -28.2538,45.696 -37.9064,69.8857 -6.5812,16.4924 -13.4141,50.7473 -13.4141,50.7473 l 38.2323,-61.8367 57.3215,-71.0133 40.4039,-57.1234 19.308,-21.8259 c 4.6912,2.7556 -34.0052,-5.8576 -28.5714,-1.4015 z"
       id="path3864-20"
       inkscape:connector-curvature="0"
       sodipodi:nodetypes="cccscccccc" />
    <path
       style="fill:#ea8856;fill-opacity:0.94117647;stroke:none"
       d="m 476.15652,1902.9786 c -4.3697,95.8578 -55.3611,82.3341 -129.2996,32.3248 -113.5063,-76.7715 -270.720899,-263.6569 -270.720899,-359.6143 0,-95.9574 80.442999,-153.5431 169.705699,-153.5431 89.2627,0 246.4772,126.2761 230.3148,480.8326 z"
       id="path3152"
       inkscape:connector-curvature="0"
       sodipodi:nodetypes="sssss"
       inkscape:export-filename="/home/rodrigo/Documentos/Negócios/workspace/TC/doc/logo.png"
       inkscape:export-xdpi="90"
       inkscape:export-ydpi="90" />
    <path
       sodipodi:nodetypes="sssss"
       inkscape:connector-curvature="0"
       id="path3155"
       d="m 569.09054,1900.7134 c 4.3255,94.8895 54.80184,81.5024 127.99346,31.9983 112.35982,-75.9961 267.98632,-260.9937 267.98632,-355.9818 0,-94.9881 -79.63039,-151.9922 -167.99144,-151.9922 -88.36104,0 -243.98754,125.0006 -227.98834,475.9757 z"
       style="fill:#ea8856;fill-opacity:1;stroke:none"
       inkscape:export-filename="/home/rodrigo/Documentos/Negócios/workspace/TC/doc/logo.png"
       inkscape:export-xdpi="90"
       inkscape:export-ydpi="90" />
    <path
       style="fill:#4d4d4d;stroke:#000000;stroke-width:1px;stroke-linecap:butt;stroke-linejoin:miter;stroke-opacity:1"
       d="m 92.298421,1688.8263 c 0,0 210.111799,317.1879 351.533199,305.066 141.42132,-12.1218 10.1015,-414.1625 10.1015,-414.1625 0,0 -52.8163,-109.6777 -131.3198,-149.5026 264.94832,-3.4594 408.1016,0 408.1016,0 -117.34893,67.8613 -98.73719,87.8344 -133.94913,154.0752 -44.55105,172.7639 -64.29165,369.362 -19.59405,401.5087 43.93057,87.2414 286.93557,-172.624 375.77674,-317.1879 -100.56273,172.8355 -165.3537,317.8733 -420.22344,436.3859 C 303.06672,2028.8695 209.12042,1939.4397 92.298421,1688.8263 z"
       id="path3157"
       inkscape:connector-curvature="0"
       sodipodi:nodetypes="cscccccccc"
       inkscape:export-filename="/home/rodrigo/Documentos/Negócios/workspace/TC/doc/logo.png"
       inkscape:export-xdpi="90"
       inkscape:export-ydpi="90" />
    <path
       inkscape:connector-curvature="0"
       id="path3939"
       d="m 582.85715,1440.8888 251.10034,-313.8754 182.47671,313.674 11.4137,159.7986 34.2558,-171.2197 -228.14621,-365.028 z"
       style="fill:#999999;stroke:#000000;stroke-width:0.99869454px;stroke-linecap:butt;stroke-linejoin:miter;stroke-opacity:1"
       sodipodi:nodetypes="ccccccc"
       inkscape:export-filename="/home/rodrigo/Documentos/Negócios/workspace/TC/doc/logo.png"
       inkscape:export-xdpi="90"
       inkscape:export-ydpi="90" />
    <path
       sodipodi:nodetypes="ccccccc"
       style="fill:#999999;stroke:#000000;stroke-width:0.99869454px;stroke-linecap:butt;stroke-linejoin:miter;stroke-opacity:1"
       d="M 439.00132,1429.4602 187.90098,1115.5848 5.4242652,1429.2588 -5.9894348,1589.0574 -40.245235,1417.8377 187.90098,1052.8097 z"
       id="path3941"
       inkscape:connector-curvature="0"
       inkscape:export-filename="/home/rodrigo/Documentos/Negócios/workspace/TC/doc/logo.png"
       inkscape:export-xdpi="90"
       inkscape:export-ydpi="90" />
  </g>
</svg>
